<svg width="56" height="56" viewBox="0 0 56 56" fill="none" xmlns="http://www.w3.org/2000/svg"><mask id="_2753188310__a" style="mask-type:alpha" maskUnits="userSpaceOnUse" x="0" y="0" width="56" height="56"><rect width="56" height="56" rx="4" fill="#C4C4C4"/></mask><g mask="url(#_2753188310__a)"><rect width="56" height="56" rx="4" fill="url(#_2753188310__b)"/><g filter="url(#_2753188310__c)"><rect x="12" y="12" width="32" height="32" rx="16" fill="#fff"/></g><path fill-rule="evenodd" clip-rule="evenodd" d="m26.124 24.106 5.525 3.287a.7.7 0 0 1 0 1.214l-5.525 3.287a.752.752 0 0 1-1.015-.233.696.696 0 0 1-.109-.374v-6.574c0-.394.33-.713.738-.713.136 0 .27.037.386.106Z" fill="#0E1318"/></g><defs><linearGradient id="_2753188310__b" x1="-28" y1="28" x2="28" y2="84" gradientUnits="userSpaceOnUse"><stop stop-color="#00C4CC"/><stop offset="1" stop-color="#7D2AE8"/></linearGradient><filter id="_2753188310__c" x="4" y="6" width="48" height="48" filterUnits="userSpaceOnUse" color-interpolation-filters="sRGB"><feFlood flood-opacity="0" result="BackgroundImageFix"/><feColorMatrix in="SourceAlpha" values="0 0 0 0 0 0 0 0 0 0 0 0 0 0 0 0 0 0 127 0" result="hardAlpha"/><feOffset dy="2"/><feGaussianBlur stdDeviation="4"/><feColorMatrix values="0 0 0 0 0.054902 0 0 0 0 0.0745098 0 0 0 0 0.0941176 0 0 0 0.15 0"/><feBlend in2="BackgroundImageFix" result="effect1_dropShadow_894_80425"/><feColorMatrix in="SourceAlpha" values="0 0 0 0 0 0 0 0 0 0 0 0 0 0 0 0 0 0 127 0" result="hardAlpha"/><feOffset/><feGaussianBlur stdDeviation=".5"/><feColorMatrix values="0 0 0 0 0.054902 0 0 0 0 0.0745098 0 0 0 0 0.0941176 0 0 0 0.02 0"/><feBlend in2="effect1_dropShadow_894_80425" result="effect2_dropShadow_894_80425"/><feBlend in="SourceGraphic" in2="effect2_dropShadow_894_80425" result="shape"/></filter></defs></svg>